<svg xmlns="http://www.w3.org/2000/svg" viewBox="0 0 46 46" fill="none"><g clip-path="url(#cappuchino-a)"><g clip-path="url(#cappuchino-b)"><path fill="#219653" d="M-1 0h48v46H-1z"/><mask id="cappuchino-c" width="30" height="37" x="8" y="14" maskUnits="userSpaceOnUse" style="mask-type:alpha"><path fill="#FFFDFA" d="M8.25 16.223A2 2 0 0 1 10.237 14h25.526a2 2 0 0 1 1.987 2.223l-3.704 33A2 2 0 0 1 32.058 51H13.942a2 2 0 0 1-1.988-1.777l-3.704-33Z"/></mask><g mask="url(#cappuchino-c)"><path fill="#fff" d="M7 14h33v32H7z"/><path fill="#FFCD9F" fill-opacity=".29" d="M7 10h33v34H7z"/><path fill="url(#d)" d="M6 24h33v22H6z"/></g></g></g><defs><clipPath id="cappuchino-a"><path fill="#fff" d="M0 0h46v46H0z"/></clipPath><clipPath id="cappuchino-b"><rect width="46" height="46" fill="#fff" rx="23"/></clipPath><linearGradient id="d" x1="22.5" x2="22.5" y1="24" y2="46" gradientUnits="userSpaceOnUse"><stop stop-color="#DE9A69"/><stop offset="1" stop-color="#AC5B20"/></linearGradient></defs></svg>