<svg xmlns="http://www.w3.org/2000/svg" viewBox="0 0 286 399" fill="none"><path fill="currentColor" fill-rule="evenodd" d="M-370 37.42c-.647 1.737-1 3.617-1 5.58v114c0 1.963.353 3.843 1 5.58V37.42ZM-6 319h252V173H138v20c0 8.836-7.163 16-16 16H97.99c-.262 6.119-5.306 11-11.49 11h-17c-6.184 0-11.228-4.881-11.49-11H34c-8.837 0-16-7.164-16-16v-20H-6v-12h276a4 4 0 0 0 4-4V43a4 4 0 0 0-4-4H-6V27h252V16a4 4 0 0 0-4-4H-6V0h248c8.836 0 16 7.163 16 16v11h12c8.836 0 16 7.163 16 16v114c0 8.837-7.164 16-16 16h-12v146h12c8.836 0 16 7.163 16 16v48c0 8.836-7.164 16-16 16H-6v-12h276a4 4 0 0 0 4-4v-48a4 4 0 0 0-4-4H-6v-12Zm132-126v-20H30v20a4 4 0 0 0 4 4h88a4 4 0 0 0 4-4Zm-496 136.42c-.647 1.737-1 3.617-1 5.58v48c0 1.963.353 3.843 1 5.58v-59.16ZM195 51c-8.837 0-16 7.163-16 16v17c0 8.837 7.163 16 16 16h51c8.836 0 16-7.163 16-16V67c0-8.837-7.164-16-16-16h-51Zm-402 87c-8.837 0-16 7.163-16 16v39c0 8.837 7.163 16 16 16h16.281c1.404 7.403 7.908 13 15.719 13h24c7.811 0 14.315-5.597 15.719-13H-119c8.836 0 16-7.163 16-16v-39c0-8.837-7.164-16-16-16h-88Z" clip-rule="evenodd"/></svg>