<svg xmlns="http://www.w3.org/2000/svg" viewBox="0 0 46 46" fill="none"><g clip-path="url(#espresso-a)"><g clip-path="url(#espresso-b)"><path fill="#219653" d="M-1 0h48v46H-1z"/><mask id="espresso-c" width="30" height="37" x="8" y="14" maskUnits="userSpaceOnUse" style="mask-type:alpha"><path fill="#FFFDFA" d="M8.25 16.223A2 2 0 0 1 10.237 14h25.526a2 2 0 0 1 1.987 2.223l-3.704 33A2 2 0 0 1 32.058 51H13.942a2 2 0 0 1-1.988-1.777l-3.704-33Z"/></mask><g mask="url(#espresso-c)"><path fill="#FFCD9F" d="M7 19h33v27H7z"/><path fill="#FFCD9F" fill-opacity=".29" d="M7 10h33v34H7z"/><path fill="#5A483B" d="M6 24h33v22H6z"/></g></g></g><defs><clipPath id="espresso-a"><path fill="#fff" d="M0 0h46v46H0z"/></clipPath><clipPath id="espresso-b"><rect width="46" height="46" fill="#fff" rx="23"/></clipPath></defs></svg>