<svg xmlns="http://www.w3.org/2000/svg" viewBox="0 0 237 267" fill="none"><rect width="117.028" height="187.933" x="-3.071" y="75.666" fill="#fff" stroke="#fff" stroke-width="10" rx="21" transform="rotate(-45 -3.071 75.666)"/><mask id="a" width="344.361" height="344.361" x="-10.142" y="-63.634" fill="#000" maskUnits="userSpaceOnUse"><path fill="#fff" d="M-10.142-63.634h344.361v344.361H-10.142z"/><path d="M18.325 61.34 74.108 5.559C78.047 1.618 83.237-.36 88.42-.367c5.18-.004 10.364 1.95 14.295 5.881l63.2 63.201c10.057-4.362 19.166-1.871 28.154.59 6.168 1.694 12.268 3.357 17.773 1.958 5.555-1.417 10.996-2.103 16.155-1.403 5.537.753 10.577 3.047 14.842 7.613 15.687 16.811 24.507 22.938 39.807 33.568 4.93 3.42 10.522 7.299 17.047 12.021 4.701 2.151 6.673 6.431 6.619 11.946-.04 3.959-1.256 8.666-3.253 13.559-1.902 4.662-4.501 9.533-7.438 14.096-8.522 13.223-20.68 24.373-28.803 22.596a5.21 5.21 0 0 1-1.156-.409 121.096 121.096 0 0 0-3.599-1.629l-3.798-1.625c-7.422.712-15.194 1.255-22.95 1.014-7.454-.234-14.806-1.202-21.662-3.44-4.153 3.129-5.757 5.433-8.588 9.49-1.227 1.761-2.636 3.786-4.047 5.695-4.379 5.913-10.785 7.09-16.542 5.415a18.584 18.584 0 0 1-6.632-3.546c-1.986-1.654-3.622-3.705-4.662-5.982l-.191-.478c-.192-.456-.36-.919-.507-1.382l-13.559 13.559c-3.942 3.943-9.129 5.917-14.312 5.925-5.18.011-10.367-1.955-14.294-5.881L18.282 89.947c-3.931-3.93-5.89-9.11-5.882-14.294.008-5.183 1.982-10.37 5.925-14.312Zm186.283 46.067 14.005-.021a5.596 5.596 0 0 1 5.62 5.582c.003 3.096-2.51 5.624-5.603 5.632l-16.394.033c-7.749.656-15.718 1.591-23.856 2.748-8.719 1.249-17.781 2.773-27.114 4.516-4.481.84-7.027 2.934-8.006 5.343-.431 1.063-.576 2.238-.453 3.402a8.003 8.003 0 0 0 1.2 3.434c1.466 2.31 4.205 3.986 7.912 3.92 9.885-.165 18.797-.058 27.619.591 8.049.595 16.03 1.649 24.612 3.365a5.083 5.083 0 0 1 3.796.958 5.195 5.195 0 0 1 1.742 1.433c5.88 4.794 10.84 7.928 15.942 9.815 5.504 2.041 11.466 2.744 19.23 2.638a5.087 5.087 0 0 1 5.164 5.029 5.13 5.13 0 0 1-5.04 5.183c-9.022.123-16.107-.752-22.933-3.284-5.425-2.007-10.517-4.994-16.119-9.276l-22.215 22.545c-1.603 1.626-1.862 3.322-1.34 4.718l.12.249c.417.907 1.082 1.738 1.895 2.415a8.314 8.314 0 0 0 2.981 1.6c1.92.555 4.038.19 5.453-1.722 1.797-2.421 2.911-4.031 3.873-5.407 3.987-5.725 5.988-8.598 13.277-13.586a5.121 5.121 0 0 1 4.713-.56c6.457 2.472 13.628 3.494 20.981 3.723 7.428.238 15.162-.343 22.577-1.077a5.1 5.1 0 0 1 2.843.331l5.086 2.173 3.298 1.487c3.759.054 11.291-8.485 17.551-18.206 2.666-4.133 4.971-8.431 6.593-12.4 1.523-3.735 2.448-7.157 2.478-9.79.013-1.383-.219-2.347-.772-2.643a4.913 4.913 0 0 1-1.197-.647c-6.826-4.939-12.41-8.818-17.321-12.235-15.872-11.021-25.024-17.38-41.417-34.944-2.524-2.704-5.513-4.063-8.797-4.51-3.665-.496-7.851.072-12.271 1.197-8.113 2.066-15.509.043-22.983-2.007-5.735-1.57-11.537-3.154-17.219-2.234l30.489 30.489Zm-100.779-2.205a4.081 4.081 0 0 1 4.428 3.726 4.112 4.112 0 0 1-3.736 4.443 22.356 22.356 0 0 1-9.547-1.239 22.132 22.132 0 0 1-8.133-5.16 22.254 22.254 0 0 1-5.478-9.04 22.31 22.31 0 0 1-.659-10.573 4.105 4.105 0 0 1 4.76-3.322 4.086 4.086 0 0 1 3.31 4.745c-.394 2.23-.228 4.524.443 6.66a14.072 14.072 0 0 0 8.59 8.974 14.06 14.06 0 0 0 6.022.786Zm-1.375-29.663a4.093 4.093 0 0 1-4.436-3.726c-.192-2.253 1.491-4.244 3.744-4.444 3.27-.283 6.539.156 9.544 1.244a22.047 22.047 0 0 1 8.136 5.156 22.19 22.19 0 0 1 5.475 9.044 22.361 22.361 0 0 1 .662 10.57 4.116 4.116 0 0 1-4.763 3.325 4.085 4.085 0 0 1-3.311-4.745 14.091 14.091 0 0 0-.439-6.663 14.065 14.065 0 0 0-3.457-5.698 14.108 14.108 0 0 0-5.137-3.273 14.051 14.051 0 0 0-6.018-.79Zm2.756 45.84a4.102 4.102 0 0 1 4.45 3.726 4.127 4.127 0 0 1-3.736 4.466 38.597 38.597 0 0 1-16.537-2.163 38.347 38.347 0 0 1-14.06-8.922 38.373 38.373 0 0 1-10.624-33.924 4.121 4.121 0 0 1 4.763-3.326 4.093 4.093 0 0 1 3.311 4.752 30.187 30.187 0 0 0 .931 14.363 30.143 30.143 0 0 0 7.451 12.303 30.18 30.18 0 0 0 11.042 7.042 30.342 30.342 0 0 0 13.009 1.683Zm-4.137-62.017a4.098 4.098 0 0 1-4.454-3.723 4.128 4.128 0 0 1 3.736-4.465 38.605 38.605 0 0 1 16.541 2.16 38.412 38.412 0 0 1 14.057 8.925 38.315 38.315 0 0 1 9.472 15.645 38.341 38.341 0 0 1 1.152 18.28 4.123 4.123 0 0 1-4.763 3.325 4.094 4.094 0 0 1-3.312-4.753c.87-4.842.516-9.776-.931-14.362a30.089 30.089 0 0 0-7.451-12.303 30.181 30.181 0 0 0-11.042-7.042 30.337 30.337 0 0 0-13.005-1.687Zm-2.91 35.987c-2.742-2.742-2.735-7.195.012-9.942 2.75-2.75 7.203-2.757 9.945-.015s2.735 7.195-.015 9.945c-2.747 2.747-7.2 2.754-9.942.012Zm93.89 14.014-30.79-30.79L95.46 12.769a9.94 9.94 0 0 0-7.055-2.897 9.987 9.987 0 0 0-7.064 2.919L25.558 68.574a9.977 9.977 0 0 0-2.919 7.064 9.917 9.917 0 0 0 2.898 7.054L137.573 194.73c1.937 1.937 4.493 2.901 7.055 2.897a10 10 0 0 0 7.063-2.919l40.47-40.47a190.639 190.639 0 0 0-13.431-1.463l-.173-.015a14.187 14.187 0 0 1-4.116 8.915 14.227 14.227 0 0 1-10.049 4.166 14.07 14.07 0 0 1-10.055-4.139 14.098 14.098 0 0 1-4.137-9.532c-6.727-.442-11.845-3.93-14.802-8.593a18.178 18.178 0 0 1-2.746-7.816 17.365 17.365 0 0 1 1.165-8.357c2.197-5.401 7.233-9.978 15.624-11.547 9.353-1.747 18.539-3.29 27.51-4.573a472.93 472.93 0 0 1 15.101-1.921Zm-20.294 43.012c-4.75-.2-9.613-.257-14.728-.227a7.35 7.35 0 0 0 2.143 4.717 7.364 7.364 0 0 0 5.218 2.162 7.369 7.369 0 0 0 5.228-2.174 7.408 7.408 0 0 0 2.139-4.478Z"/></mask><path fill="#AED7A0" d="M18.325 61.34 74.108 5.559C78.047 1.618 83.237-.36 88.42-.367c5.18-.004 10.364 1.95 14.295 5.881l63.2 63.201c10.057-4.362 19.166-1.871 28.154.59 6.168 1.694 12.268 3.357 17.773 1.958 5.555-1.417 10.996-2.103 16.155-1.403 5.537.753 10.577 3.047 14.842 7.613 15.687 16.811 24.507 22.938 39.807 33.568 4.93 3.42 10.522 7.299 17.047 12.021 4.701 2.151 6.673 6.431 6.619 11.946-.04 3.959-1.256 8.666-3.253 13.559-1.902 4.662-4.501 9.533-7.438 14.096-8.522 13.223-20.68 24.373-28.803 22.596a5.21 5.21 0 0 1-1.156-.409 121.096 121.096 0 0 0-3.599-1.629l-3.798-1.625c-7.422.712-15.194 1.255-22.95 1.014-7.454-.234-14.806-1.202-21.662-3.44-4.153 3.129-5.757 5.433-8.588 9.49-1.227 1.761-2.636 3.786-4.047 5.695-4.379 5.913-10.785 7.09-16.542 5.415a18.584 18.584 0 0 1-6.632-3.546c-1.986-1.654-3.622-3.705-4.662-5.982l-.191-.478c-.192-.456-.36-.919-.507-1.382l-13.559 13.559c-3.942 3.943-9.129 5.917-14.312 5.925-5.18.011-10.367-1.955-14.294-5.881L18.282 89.947c-3.931-3.93-5.89-9.11-5.882-14.294.008-5.183 1.982-10.37 5.925-14.312Zm186.283 46.067 14.005-.021a5.596 5.596 0 0 1 5.62 5.582c.003 3.096-2.51 5.624-5.603 5.632l-16.394.033c-7.749.656-15.718 1.591-23.856 2.748-8.719 1.249-17.781 2.773-27.114 4.516-4.481.84-7.027 2.934-8.006 5.343-.431 1.063-.576 2.238-.453 3.402a8.003 8.003 0 0 0 1.2 3.434c1.466 2.31 4.205 3.986 7.912 3.92 9.885-.165 18.797-.058 27.619.591 8.049.595 16.03 1.649 24.612 3.365a5.083 5.083 0 0 1 3.796.958 5.195 5.195 0 0 1 1.742 1.433c5.88 4.794 10.84 7.928 15.942 9.815 5.504 2.041 11.466 2.744 19.23 2.638a5.087 5.087 0 0 1 5.164 5.029 5.13 5.13 0 0 1-5.04 5.183c-9.022.123-16.107-.752-22.933-3.284-5.425-2.007-10.517-4.994-16.119-9.276l-22.215 22.545c-1.603 1.626-1.862 3.322-1.34 4.718l.12.249c.417.907 1.082 1.738 1.895 2.415a8.314 8.314 0 0 0 2.981 1.6c1.92.555 4.038.19 5.453-1.722 1.797-2.421 2.911-4.031 3.873-5.407 3.987-5.725 5.988-8.598 13.277-13.586a5.121 5.121 0 0 1 4.713-.56c6.457 2.472 13.628 3.494 20.981 3.723 7.428.238 15.162-.343 22.577-1.077a5.1 5.1 0 0 1 2.843.331l5.086 2.173 3.298 1.487c3.759.054 11.291-8.485 17.551-18.206 2.666-4.133 4.971-8.431 6.593-12.4 1.523-3.735 2.448-7.157 2.478-9.79.013-1.383-.219-2.347-.772-2.643a4.913 4.913 0 0 1-1.197-.647c-6.826-4.939-12.41-8.818-17.321-12.235-15.872-11.021-25.024-17.38-41.417-34.944-2.524-2.704-5.513-4.063-8.797-4.51-3.665-.496-7.851.072-12.271 1.197-8.113 2.066-15.509.043-22.983-2.007-5.735-1.57-11.537-3.154-17.219-2.234l30.489 30.489Zm-100.779-2.205a4.081 4.081 0 0 1 4.428 3.726 4.112 4.112 0 0 1-3.736 4.443 22.356 22.356 0 0 1-9.547-1.239 22.132 22.132 0 0 1-8.133-5.16 22.254 22.254 0 0 1-5.478-9.04 22.31 22.31 0 0 1-.659-10.573 4.105 4.105 0 0 1 4.76-3.322 4.086 4.086 0 0 1 3.31 4.745c-.394 2.23-.228 4.524.443 6.66a14.072 14.072 0 0 0 8.59 8.974 14.06 14.06 0 0 0 6.022.786Zm-1.375-29.663a4.093 4.093 0 0 1-4.436-3.726c-.192-2.253 1.491-4.244 3.744-4.444 3.27-.283 6.539.156 9.544 1.244a22.047 22.047 0 0 1 8.136 5.156 22.19 22.19 0 0 1 5.475 9.044 22.361 22.361 0 0 1 .662 10.57 4.116 4.116 0 0 1-4.763 3.325 4.085 4.085 0 0 1-3.311-4.745 14.091 14.091 0 0 0-.439-6.663 14.065 14.065 0 0 0-3.457-5.698 14.108 14.108 0 0 0-5.137-3.273 14.051 14.051 0 0 0-6.018-.79Zm2.756 45.84a4.102 4.102 0 0 1 4.45 3.726 4.127 4.127 0 0 1-3.736 4.466 38.597 38.597 0 0 1-16.537-2.163 38.347 38.347 0 0 1-14.06-8.922 38.373 38.373 0 0 1-10.624-33.924 4.121 4.121 0 0 1 4.763-3.326 4.093 4.093 0 0 1 3.311 4.752 30.187 30.187 0 0 0 .931 14.363 30.143 30.143 0 0 0 7.451 12.303 30.18 30.18 0 0 0 11.042 7.042 30.342 30.342 0 0 0 13.009 1.683Zm-4.137-62.017a4.098 4.098 0 0 1-4.454-3.723 4.128 4.128 0 0 1 3.736-4.465 38.605 38.605 0 0 1 16.541 2.16 38.412 38.412 0 0 1 14.057 8.925 38.315 38.315 0 0 1 9.472 15.645 38.341 38.341 0 0 1 1.152 18.28 4.123 4.123 0 0 1-4.763 3.325 4.094 4.094 0 0 1-3.312-4.753c.87-4.842.516-9.776-.931-14.362a30.089 30.089 0 0 0-7.451-12.303 30.181 30.181 0 0 0-11.042-7.042 30.337 30.337 0 0 0-13.005-1.687Zm-2.91 35.987c-2.742-2.742-2.735-7.195.012-9.942 2.75-2.75 7.203-2.757 9.945-.015s2.735 7.195-.015 9.945c-2.747 2.747-7.2 2.754-9.942.012Zm93.89 14.014-30.79-30.79L95.46 12.769a9.94 9.94 0 0 0-7.055-2.897 9.987 9.987 0 0 0-7.064 2.919L25.558 68.574a9.977 9.977 0 0 0-2.919 7.064 9.917 9.917 0 0 0 2.898 7.054L137.573 194.73c1.937 1.937 4.493 2.901 7.055 2.897a10 10 0 0 0 7.063-2.919l40.47-40.47a190.639 190.639 0 0 0-13.431-1.463l-.173-.015a14.187 14.187 0 0 1-4.116 8.915 14.227 14.227 0 0 1-10.049 4.166 14.07 14.07 0 0 1-10.055-4.139 14.098 14.098 0 0 1-4.137-9.532c-6.727-.442-11.845-3.93-14.802-8.593a18.178 18.178 0 0 1-2.746-7.816 17.365 17.365 0 0 1 1.165-8.357c2.197-5.401 7.233-9.978 15.624-11.547 9.353-1.747 18.539-3.29 27.51-4.573a472.93 472.93 0 0 1 15.101-1.921Zm-20.294 43.012c-4.75-.2-9.613-.257-14.728-.227a7.35 7.35 0 0 0 2.143 4.717 7.364 7.364 0 0 0 5.218 2.162 7.369 7.369 0 0 0 5.228-2.174 7.408 7.408 0 0 0 2.139-4.478Z"/><path stroke="#fff" stroke-width="20" d="M18.325 61.34 74.108 5.559C78.047 1.618 83.237-.36 88.42-.367c5.18-.004 10.364 1.95 14.295 5.881l63.2 63.201c10.057-4.362 19.166-1.871 28.154.59 6.168 1.694 12.268 3.357 17.773 1.958 5.555-1.417 10.996-2.103 16.155-1.403 5.537.753 10.577 3.047 14.842 7.613 15.687 16.811 24.507 22.938 39.807 33.568 4.93 3.42 10.522 7.299 17.047 12.021 4.701 2.151 6.673 6.431 6.619 11.946-.04 3.959-1.256 8.666-3.253 13.559-1.902 4.662-4.501 9.533-7.438 14.096-8.522 13.223-20.68 24.373-28.803 22.596a5.21 5.21 0 0 1-1.156-.409 121.096 121.096 0 0 0-3.599-1.629l-3.798-1.625c-7.422.712-15.194 1.255-22.95 1.014-7.454-.234-14.806-1.202-21.662-3.44-4.153 3.129-5.757 5.433-8.588 9.49-1.227 1.761-2.636 3.786-4.047 5.695-4.379 5.913-10.785 7.09-16.542 5.415a18.584 18.584 0 0 1-6.632-3.546c-1.986-1.654-3.622-3.705-4.662-5.982l-.191-.478c-.192-.456-.36-.919-.507-1.382l-13.559 13.559c-3.942 3.943-9.129 5.917-14.312 5.925-5.18.011-10.367-1.955-14.294-5.881L18.282 89.947c-3.931-3.93-5.89-9.11-5.882-14.294.008-5.183 1.982-10.37 5.925-14.312Zm186.283 46.067 14.005-.021a5.596 5.596 0 0 1 5.62 5.582c.003 3.096-2.51 5.624-5.603 5.632l-16.394.033c-7.749.656-15.718 1.591-23.856 2.748-8.719 1.249-17.781 2.773-27.114 4.516-4.481.84-7.027 2.934-8.006 5.343-.431 1.063-.576 2.238-.453 3.402a8.003 8.003 0 0 0 1.2 3.434c1.466 2.31 4.205 3.986 7.912 3.92 9.885-.165 18.797-.058 27.619.591 8.049.595 16.03 1.649 24.612 3.365a5.083 5.083 0 0 1 3.796.958 5.195 5.195 0 0 1 1.742 1.433c5.88 4.794 10.84 7.928 15.942 9.815 5.504 2.041 11.466 2.744 19.23 2.638a5.087 5.087 0 0 1 5.164 5.029 5.13 5.13 0 0 1-5.04 5.183c-9.022.123-16.107-.752-22.933-3.284-5.425-2.007-10.517-4.994-16.119-9.276l-22.215 22.545c-1.603 1.626-1.862 3.322-1.34 4.718l.12.249c.417.907 1.082 1.738 1.895 2.415a8.314 8.314 0 0 0 2.981 1.6c1.92.555 4.038.19 5.453-1.722 1.797-2.421 2.911-4.031 3.873-5.407 3.987-5.725 5.988-8.598 13.277-13.586a5.121 5.121 0 0 1 4.713-.56c6.457 2.472 13.628 3.494 20.981 3.723 7.428.238 15.162-.343 22.577-1.077a5.1 5.1 0 0 1 2.843.331l5.086 2.173 3.298 1.487c3.759.054 11.291-8.485 17.551-18.206 2.666-4.133 4.971-8.431 6.593-12.4 1.523-3.735 2.448-7.157 2.478-9.79.013-1.383-.219-2.347-.772-2.643a4.913 4.913 0 0 1-1.197-.647c-6.826-4.939-12.41-8.818-17.321-12.235-15.872-11.021-25.024-17.38-41.417-34.944-2.524-2.704-5.513-4.063-8.797-4.51-3.665-.496-7.851.072-12.271 1.197-8.113 2.066-15.509.043-22.983-2.007-5.735-1.57-11.537-3.154-17.219-2.234l30.489 30.489Zm-100.779-2.205a4.081 4.081 0 0 1 4.428 3.726 4.112 4.112 0 0 1-3.736 4.443 22.356 22.356 0 0 1-9.547-1.239 22.132 22.132 0 0 1-8.133-5.16 22.254 22.254 0 0 1-5.478-9.04 22.31 22.31 0 0 1-.659-10.573 4.105 4.105 0 0 1 4.76-3.322 4.086 4.086 0 0 1 3.31 4.745c-.394 2.23-.228 4.524.443 6.66a14.072 14.072 0 0 0 8.59 8.974 14.06 14.06 0 0 0 6.022.786Zm-1.375-29.663a4.093 4.093 0 0 1-4.436-3.726c-.192-2.253 1.491-4.244 3.744-4.444 3.27-.283 6.539.156 9.544 1.244a22.047 22.047 0 0 1 8.136 5.156 22.19 22.19 0 0 1 5.475 9.044 22.361 22.361 0 0 1 .662 10.57 4.116 4.116 0 0 1-4.763 3.325 4.085 4.085 0 0 1-3.311-4.745 14.091 14.091 0 0 0-.439-6.663 14.065 14.065 0 0 0-3.457-5.698 14.108 14.108 0 0 0-5.137-3.273 14.051 14.051 0 0 0-6.018-.79Zm2.756 45.84a4.102 4.102 0 0 1 4.45 3.726 4.127 4.127 0 0 1-3.736 4.466 38.597 38.597 0 0 1-16.537-2.163 38.347 38.347 0 0 1-14.06-8.922 38.373 38.373 0 0 1-10.624-33.924 4.121 4.121 0 0 1 4.763-3.326 4.093 4.093 0 0 1 3.311 4.752 30.187 30.187 0 0 0 .931 14.363 30.143 30.143 0 0 0 7.451 12.303 30.18 30.18 0 0 0 11.042 7.042 30.342 30.342 0 0 0 13.009 1.683Zm-4.137-62.017a4.098 4.098 0 0 1-4.454-3.723 4.128 4.128 0 0 1 3.736-4.465 38.605 38.605 0 0 1 16.541 2.16 38.412 38.412 0 0 1 14.057 8.925 38.315 38.315 0 0 1 9.472 15.645 38.341 38.341 0 0 1 1.152 18.28 4.123 4.123 0 0 1-4.763 3.325 4.094 4.094 0 0 1-3.312-4.753c.87-4.842.516-9.776-.931-14.362a30.089 30.089 0 0 0-7.451-12.303 30.181 30.181 0 0 0-11.042-7.042 30.337 30.337 0 0 0-13.005-1.687Zm-2.91 35.987c-2.742-2.742-2.735-7.195.012-9.942 2.75-2.75 7.203-2.757 9.945-.015s2.735 7.195-.015 9.945c-2.747 2.747-7.2 2.754-9.942.012Zm93.89 14.014-30.79-30.79L95.46 12.769a9.94 9.94 0 0 0-7.055-2.897 9.987 9.987 0 0 0-7.064 2.919L25.558 68.574a9.977 9.977 0 0 0-2.919 7.064 9.917 9.917 0 0 0 2.898 7.054L137.573 194.73c1.937 1.937 4.493 2.901 7.055 2.897a10 10 0 0 0 7.063-2.919l40.47-40.47a190.639 190.639 0 0 0-13.431-1.463l-.173-.015a14.187 14.187 0 0 1-4.116 8.915 14.227 14.227 0 0 1-10.049 4.166 14.07 14.07 0 0 1-10.055-4.139 14.098 14.098 0 0 1-4.137-9.532c-6.727-.442-11.845-3.93-14.802-8.593a18.178 18.178 0 0 1-2.746-7.816 17.365 17.365 0 0 1 1.165-8.357c2.197-5.401 7.233-9.978 15.624-11.547 9.353-1.747 18.539-3.29 27.51-4.573a472.93 472.93 0 0 1 15.101-1.921Zm-20.294 43.012c-4.75-.2-9.613-.257-14.728-.227a7.35 7.35 0 0 0 2.143 4.717 7.364 7.364 0 0 0 5.218 2.162 7.369 7.369 0 0 0 5.228-2.174 7.408 7.408 0 0 0 2.139-4.478Z" mask="url(#a)"/></svg>